<?xml version="1.0" encoding="utf-8"?>
<!-- Generator: Adobe Illustrator 16.0.0, SVG Export Plug-In . SVG Version: 6.00 Build 0)  -->
<!DOCTYPE svg PUBLIC "-//W3C//DTD SVG 1.0//EN" "http://www.w3.org/TR/2001/REC-SVG-20010904/DTD/svg10.dtd">
<svg version="1.0" xmlns="http://www.w3.org/2000/svg" xmlns:xlink="http://www.w3.org/1999/xlink" x="0px" y="0px" width="512px"
	 height="512px" viewBox="0 0 512 512" enable-background="new 0 0 512 512" xml:space="preserve">
<g id="Layer_4">
	<defs>
		<line id="SVGID_1_" x1="63.135" y1="28.5" x2="63.135" y2="482.626"/>
	</defs>
	<defs>
		<line id="SVGID_2_" x1="90.926" y1="28.5" x2="90.926" y2="482.626"/>
	</defs>
	<defs>
		<line id="SVGID_3_" x1="118.717" y1="28.5" x2="118.717" y2="482.626"/>
	</defs>
	<defs>
		<line id="SVGID_4_" x1="146.509" y1="28.5" x2="146.509" y2="482.626"/>
	</defs>
	<defs>
		<line id="SVGID_5_" x1="174.299" y1="28.5" x2="174.299" y2="482.626"/>
	</defs>
	<defs>
		<line id="SVGID_6_" x1="202.09" y1="28.5" x2="202.09" y2="482.626"/>
	</defs>
	<defs>
		<line id="SVGID_7_" x1="229.881" y1="28.5" x2="229.881" y2="482.626"/>
	</defs>
	<defs>
		<line id="SVGID_8_" x1="257.672" y1="28.5" x2="257.672" y2="482.626"/>
	</defs>
	<defs>
		<line id="SVGID_9_" x1="285.463" y1="28.5" x2="285.463" y2="482.626"/>
	</defs>
	<defs>
		<line id="SVGID_10_" x1="313.254" y1="28.5" x2="313.254" y2="482.626"/>
	</defs>
	<defs>
		<line id="SVGID_11_" x1="341.045" y1="28.5" x2="341.045" y2="482.626"/>
	</defs>
	<defs>
		<line id="SVGID_12_" x1="368.836" y1="28.5" x2="368.836" y2="482.626"/>
	</defs>
	<defs>
		<line id="SVGID_13_" x1="396.627" y1="28.5" x2="396.627" y2="482.626"/>
	</defs>
	<defs>
		<line id="SVGID_14_" x1="424.418" y1="28.5" x2="424.418" y2="482.626"/>
	</defs>
	<defs>
		<line id="SVGID_15_" x1="452.209" y1="28.5" x2="452.209" y2="482.626"/>
	</defs>
	<defs>
		<line id="SVGID_16_" x1="35.344" y1="56.883" x2="480" y2="56.883"/>
	</defs>
	<defs>
		<line id="SVGID_17_" x1="35.344" y1="85.266" x2="480" y2="85.266"/>
	</defs>
	<defs>
		<line id="SVGID_18_" x1="35.344" y1="113.649" x2="480" y2="113.649"/>
	</defs>
	<defs>
		<line id="SVGID_19_" x1="35.344" y1="142.032" x2="480" y2="142.032"/>
	</defs>
	<defs>
		<line id="SVGID_20_" x1="35.344" y1="170.415" x2="480" y2="170.415"/>
	</defs>
	<defs>
		<line id="SVGID_21_" x1="35.344" y1="198.797" x2="480" y2="198.797"/>
	</defs>
	<defs>
		<line id="SVGID_22_" x1="35.344" y1="227.18" x2="480" y2="227.18"/>
	</defs>
	<defs>
		<line id="SVGID_23_" x1="35.344" y1="255.563" x2="480" y2="255.563"/>
	</defs>
	<defs>
		<line id="SVGID_24_" x1="35.344" y1="283.946" x2="480" y2="283.946"/>
	</defs>
	<defs>
		<line id="SVGID_25_" x1="35.344" y1="312.329" x2="480" y2="312.329"/>
	</defs>
	<defs>
		<line id="SVGID_26_" x1="35.344" y1="340.712" x2="480" y2="340.712"/>
	</defs>
	<defs>
		<line id="SVGID_27_" x1="35.344" y1="369.095" x2="480" y2="369.095"/>
	</defs>
	<defs>
		<line id="SVGID_28_" x1="35.344" y1="397.478" x2="480" y2="397.478"/>
	</defs>
	<defs>
		<line id="SVGID_29_" x1="35.344" y1="425.86" x2="480" y2="425.86"/>
	</defs>
	<defs>
		<line id="SVGID_30_" x1="35.344" y1="454.243" x2="480" y2="454.243"/>
	</defs>
	<defs>
		<rect id="SVGID_31_" x="35.344" y="28.5" width="444.656" height="454.126"/>
	</defs>
	<clipPath id="SVGID_32_">
		<use xlink:href="#SVGID_1_"  overflow="visible"/>
	</clipPath>
	<clipPath id="SVGID_33_" clip-path="url(#SVGID_32_)">
		<use xlink:href="#SVGID_2_"  overflow="visible"/>
	</clipPath>
	<clipPath id="SVGID_34_" clip-path="url(#SVGID_33_)">
		<use xlink:href="#SVGID_3_"  overflow="visible"/>
	</clipPath>
	<clipPath id="SVGID_35_" clip-path="url(#SVGID_34_)">
		<use xlink:href="#SVGID_4_"  overflow="visible"/>
	</clipPath>
	<clipPath id="SVGID_36_" clip-path="url(#SVGID_35_)">
		<use xlink:href="#SVGID_5_"  overflow="visible"/>
	</clipPath>
	<clipPath id="SVGID_37_" clip-path="url(#SVGID_36_)">
		<use xlink:href="#SVGID_6_"  overflow="visible"/>
	</clipPath>
	<clipPath id="SVGID_38_" clip-path="url(#SVGID_37_)">
		<use xlink:href="#SVGID_7_"  overflow="visible"/>
	</clipPath>
	<clipPath id="SVGID_39_" clip-path="url(#SVGID_38_)">
		<use xlink:href="#SVGID_8_"  overflow="visible"/>
	</clipPath>
	<clipPath id="SVGID_40_" clip-path="url(#SVGID_39_)">
		<use xlink:href="#SVGID_9_"  overflow="visible"/>
	</clipPath>
	<clipPath id="SVGID_41_" clip-path="url(#SVGID_40_)">
		<use xlink:href="#SVGID_10_"  overflow="visible"/>
	</clipPath>
	<clipPath id="SVGID_42_" clip-path="url(#SVGID_41_)">
		<use xlink:href="#SVGID_11_"  overflow="visible"/>
	</clipPath>
	<clipPath id="SVGID_43_" clip-path="url(#SVGID_42_)">
		<use xlink:href="#SVGID_12_"  overflow="visible"/>
	</clipPath>
	<clipPath id="SVGID_44_" clip-path="url(#SVGID_43_)">
		<use xlink:href="#SVGID_13_"  overflow="visible"/>
	</clipPath>
	<clipPath id="SVGID_45_" clip-path="url(#SVGID_44_)">
		<use xlink:href="#SVGID_14_"  overflow="visible"/>
	</clipPath>
	<clipPath id="SVGID_46_" clip-path="url(#SVGID_45_)">
		<use xlink:href="#SVGID_15_"  overflow="visible"/>
	</clipPath>
	<clipPath id="SVGID_47_" clip-path="url(#SVGID_46_)">
		<use xlink:href="#SVGID_16_"  overflow="visible"/>
	</clipPath>
	<clipPath id="SVGID_48_" clip-path="url(#SVGID_47_)">
		<use xlink:href="#SVGID_17_"  overflow="visible"/>
	</clipPath>
	<clipPath id="SVGID_49_" clip-path="url(#SVGID_48_)">
		<use xlink:href="#SVGID_18_"  overflow="visible"/>
	</clipPath>
	<clipPath id="SVGID_50_" clip-path="url(#SVGID_49_)">
		<use xlink:href="#SVGID_19_"  overflow="visible"/>
	</clipPath>
	<clipPath id="SVGID_51_" clip-path="url(#SVGID_50_)">
		<use xlink:href="#SVGID_20_"  overflow="visible"/>
	</clipPath>
	<clipPath id="SVGID_52_" clip-path="url(#SVGID_51_)">
		<use xlink:href="#SVGID_21_"  overflow="visible"/>
	</clipPath>
	<clipPath id="SVGID_53_" clip-path="url(#SVGID_52_)">
		<use xlink:href="#SVGID_22_"  overflow="visible"/>
	</clipPath>
	<clipPath id="SVGID_54_" clip-path="url(#SVGID_53_)">
		<use xlink:href="#SVGID_23_"  overflow="visible"/>
	</clipPath>
	<clipPath id="SVGID_55_" clip-path="url(#SVGID_54_)">
		<use xlink:href="#SVGID_24_"  overflow="visible"/>
	</clipPath>
	<clipPath id="SVGID_56_" clip-path="url(#SVGID_55_)">
		<use xlink:href="#SVGID_25_"  overflow="visible"/>
	</clipPath>
	<clipPath id="SVGID_57_" clip-path="url(#SVGID_56_)">
		<use xlink:href="#SVGID_26_"  overflow="visible"/>
	</clipPath>
	<clipPath id="SVGID_58_" clip-path="url(#SVGID_57_)">
		<use xlink:href="#SVGID_27_"  overflow="visible"/>
	</clipPath>
	<clipPath id="SVGID_59_" clip-path="url(#SVGID_58_)">
		<use xlink:href="#SVGID_28_"  overflow="visible"/>
	</clipPath>
	<clipPath id="SVGID_60_" clip-path="url(#SVGID_59_)">
		<use xlink:href="#SVGID_29_"  overflow="visible"/>
	</clipPath>
	<clipPath id="SVGID_61_" clip-path="url(#SVGID_60_)">
		<use xlink:href="#SVGID_30_"  overflow="visible"/>
	</clipPath>
	<clipPath id="SVGID_62_" clip-path="url(#SVGID_61_)">
		<use xlink:href="#SVGID_31_"  overflow="visible"/>
	</clipPath>
</g>
<g id="Layer_1">
	<path fill="#A82D23" d="M422.006,305.74c-6.824-6.723-21.957-10.283-44.986-10.586c-15.589-0.172-34.351,1.201-54.085,3.964
		c-8.837-5.099-17.945-10.647-25.094-17.329c-19.231-17.958-35.284-42.886-45.288-70.297c0.652-2.56,1.207-4.81,1.724-7.106
		c0,0,10.833-61.53,7.965-82.333c-0.395-2.853-0.637-3.681-1.404-5.898l-0.941-2.417c-2.947-6.796-8.724-13.997-17.782-13.604
		l-5.312-0.169l-0.146-0.003c-10.1,0-18.332,5.166-20.493,12.887c-6.569,24.217,0.209,60.446,12.491,107.369l-3.144,7.643
		c-8.794,21.438-19.815,43.03-29.539,62.079l-1.264,2.477c-10.23,20.02-19.512,37.014-27.927,51.411l-8.688,4.594
		c-0.632,0.334-15.522,8.209-19.014,10.322c-29.628,17.69-49.261,37.771-52.518,53.708c-1.036,5.085-0.265,11.593,5.007,14.606
		l8.403,4.229c3.645,1.826,7.489,2.751,11.427,2.751c21.102,0,45.6-26.286,79.348-85.183
		c38.965-12.685,83.327-23.229,122.207-29.045c29.629,16.684,66.071,28.272,89.071,28.272c4.084,0,7.605-0.39,10.466-1.147
		c4.411-1.168,8.129-3.684,10.396-7.097c4.463-6.716,5.367-15.966,4.156-25.438C426.68,311.589,424.435,308.113,422.006,305.74z
		 M106.823,418.024c3.848-10.521,19.08-31.322,41.602-49.778c1.416-1.148,4.904-4.416,8.097-7.451
		C132.971,398.357,117.199,413.328,106.823,418.024z M240.217,110.843c6.783,0,10.642,17.097,10.962,33.127
		c0.32,16.03-3.429,27.28-8.079,35.604c-3.851-12.324-5.713-31.75-5.713-44.452C237.387,135.122,237.104,110.843,240.217,110.843z
		 M200.426,329.747c4.725-8.458,9.641-17.378,14.665-26.839c12.246-23.158,19.979-41.278,25.739-56.173
		c11.455,20.842,25.722,38.56,42.493,52.756c2.092,1.771,4.309,3.551,6.637,5.325C255.855,311.564,226.378,319.771,200.426,329.747z
		 M415.452,327.826c-2.077,1.299-8.027,2.05-11.854,2.05c-12.353,0-27.636-5.647-49.062-14.833
		c8.233-0.609,15.781-0.919,22.55-0.919c12.391,0,16.06-0.054,28.175,3.036S417.529,326.527,415.452,327.826z"/>
</g>
<g id="Layer_5">
	<path fill="#474747" d="M451.716,99.715l-71.432-71.431C364.728,12.728,334,0,312,0H72C50,0,32,18,32,40v432c0,22,18,40,40,40h368
		c22,0,40-18,40-40V168C480,146,467.272,115.271,451.716,99.715z M429.089,122.343c1.565,1.565,3.125,3.487,4.64,5.657H352V46.272
		c2.17,1.515,4.092,3.075,5.657,4.64L429.089,122.343z M448,472c0,4.336-3.664,8-8,8H72c-4.336,0-8-3.664-8-8V40
		c0-4.336,3.664-8,8-8h240c2.416,0,5.127,0.305,8,0.852V160h127.148c0.547,2.873,0.852,5.583,0.852,8V472z"/>
</g>
</svg>
